<?xml version="1.0" encoding="UTF-8" standalone="no"?>
<svg
   xmlns:dc="http://purl.org/dc/elements/1.1/"
   xmlns:cc="http://creativecommons.org/ns#"
   xmlns:rdf="http://www.w3.org/1999/02/22-rdf-syntax-ns#"
   xmlns:svg="http://www.w3.org/2000/svg"
   xmlns="http://www.w3.org/2000/svg"
   xmlns:sodipodi="http://sodipodi.sourceforge.net/DTD/sodipodi-0.dtd"
   xmlns:inkscape="http://www.inkscape.org/namespaces/inkscape"
   inkscape:version="1.0 (1.0+r73+1)"
   sodipodi:docname="flag.svg"
   xml:space="preserve"
   enable-background="new 0 0 76 76"
   viewBox="0 0 360 490"
   height="490"
   width="360"
   y="0px"
   x="0px"
   id="レイヤー_1"
   version="1.1"><metadata
   id="metadata19"><rdf:RDF><cc:Work
       rdf:about=""><dc:format>image/svg+xml</dc:format><dc:type
         rdf:resource="http://purl.org/dc/dcmitype/StillImage" /><dc:title></dc:title></cc:Work></rdf:RDF></metadata><defs
   id="defs17" /><sodipodi:namedview
   showborder="true"
   inkscape:showpageshadow="false"
   width="360in"
   units="px"
   inkscape:current-layer="レイヤー_1"
   inkscape:window-maximized="1"
   inkscape:window-y="38"
   inkscape:window-x="74"
   inkscape:cy="-3.0922314"
   inkscape:cx="-73.813407"
   inkscape:zoom="0.64"
   showgrid="false"
   id="namedview15"
   inkscape:window-height="1006"
   inkscape:window-width="1846"
   inkscape:pageshadow="2"
   inkscape:pageopacity="0"
   guidetolerance="10"
   gridtolerance="10"
   objecttolerance="10"
   borderopacity="1"
   bordercolor="#666666"
   pagecolor="#ffffff" />
<g
   transform="translate(-19.375,-13.875)"
   id="g12">
	<!-- <g>
		<path id="rect1313_65_" fill="#FDFCFD" d="M0.009,0h75.982C75.996,0,76,0.004,76,0.009V75.99c0,0.006-0.004,0.01-0.009,0.01H0.009
			C0.004,76,0,75.996,0,75.99V0.009C0,0.004,0.004,0,0.009,0z"/>
		<path id="path1341_65_" fill="#757575" d="M75.99,0C75.995,0,76,0.005,76,0.01v75.981C76,75.996,75.995,76,75.99,76H0.009
			C0.004,76,0,75.996,0,75.991L75.99,0z"/>
		<polygon id="rect1311_65_" fill="#B9B9B9" points="8.508,8.5 67.492,8.5 67.5,8.508 67.5,67.491 67.492,67.5 8.508,67.5
			8.5,67.491 8.5,8.508 		"/>
	</g> -->
	<g
   id="g10">
		
		
		
		<g
   id="g852"><path
     style="stroke-width:9.84395"
     d="M 222.40651,13.875 19.375,143.07687 183.01148,247.20743 V 385.4842 h -73.11827 v 47.5855 H 27.719285 v 69.31143 H 377.71794 V 433.0697 H 295.52477 V 385.4842 H 222.40651 V 272.27875 39.715375 Z"
     id="polygon2" /></g>
	</g>
</g>
</svg>
